# xmcd
#
# Track frame offsets:
#	150
#	15295
#	28342
#	51055
#	65305
#	86802
#	103725
#	116670
#	139482
#	155790
#	173275
#	188340
#
# Disc length: 2779 seconds
#
# Revision: 2
# Processed by: cddbd v1.4PL0 Copyright (c) Steve Scherf et al.
# Submitted via: dBpowerAMP V4.0
#
DISCID=980ad90c
DTITLE=Doug Sahm - The Return of Wayne Douglas
DYEAR=1900
DGENRE=country
TTITLE0=Beautiful Texas Sunshine
TTITLE1=Oh No!  Not Another One
TTITLE2=Love Minus Zero - No Limit
TTITLE3=You Was For Real
TTITLE4=Cowboy Payton Place
TTITLE5=They'll Never Take Her Love From Me
TTITLE6=Huggin' Thin Air
TTITLE7=Yesterday Got In The Way
TTITLE8=I Can't Go Back To Austin
TTITLE9=Dallas Alice
TTITLE10=I Don't Trust No One When It Comes To My Heart
TTITLE11=Texas Me
EXTD=
EXTT0=
EXTT1=
EXTT2=
EXTT3=
EXTT4=
EXTT5=
EXTT6=
EXTT7=
EXTT8=
EXTT9=
EXTT10=
EXTT11=
PLAYORDER=
